<svg width="501" height="488" viewBox="0 0 501 488" fill="none" xmlns="http://www.w3.org/2000/svg">
<g filter="url(#filter0_b_3_68)">
<g clip-path="url(#clip0_3_68)">
<g style="mix-blend-mode:color">
<path d="M88.7187 0.0500336H412.281C461.338 0.0500336 501 39.6658 501 88.6643V399.336C501 448.334 461.338 487.95 412.281 487.95H88.7187C39.6625 487.95 -7.62939e-06 448.334 -7.62939e-06 399.336V88.6643C-7.62939e-06 39.6658 39.6625 0.0500336 88.7187 0.0500336Z" fill="#001E36"/>
</g>
<path d="M112.725 342.206V127.655C112.725 126.195 113.351 125.361 114.812 125.361C118.361 125.361 121.701 125.361 126.502 125.153C131.512 124.944 136.731 124.944 142.367 124.736C148.004 124.527 154.057 124.527 160.529 124.319C167 124.11 173.262 124.11 179.525 124.11C196.642 124.11 210.837 126.195 222.527 130.574C232.965 134.118 242.567 139.956 250.5 147.671C257.18 154.343 262.399 162.475 265.739 171.441C268.87 180.198 270.54 189.163 270.54 198.546C270.54 216.477 266.365 231.281 258.015 242.957C249.665 254.634 237.975 263.391 224.406 268.395C210.211 273.608 194.555 275.484 177.437 275.484C172.427 275.484 169.087 275.484 167 275.276C164.912 275.067 161.99 275.067 158.024 275.067V341.997C158.232 343.457 157.189 344.708 155.727 344.916H115.23C113.56 344.916 112.725 344.082 112.725 342.206ZM158.232 165.602V235.66C161.155 235.868 163.869 236.077 166.374 236.077H177.437C185.579 236.077 193.72 234.826 201.444 232.324C208.124 230.447 213.969 226.486 218.561 221.273C222.945 216.06 225.033 208.971 225.033 199.797C225.241 193.333 223.571 186.87 220.231 181.24C216.682 175.819 211.672 171.649 205.619 169.355C197.895 166.228 189.545 164.977 180.986 165.185C175.559 165.185 170.757 165.185 166.791 165.394C162.616 165.185 159.694 165.394 158.232 165.602ZM400.8 222.941C394.538 219.605 387.857 217.311 380.76 215.852C373.036 214.184 365.312 213.141 357.38 213.141C353.205 212.933 348.821 213.558 344.855 214.601C342.141 215.226 339.845 216.686 338.384 218.771C337.34 220.439 336.714 222.524 336.714 224.401C336.714 226.277 337.549 228.154 338.801 229.822C340.68 232.115 343.185 233.992 345.899 235.451C350.7 237.953 355.71 240.247 360.72 242.332C371.993 246.085 382.847 251.298 392.867 257.553C399.756 261.931 405.393 267.769 409.359 274.859C412.699 281.531 414.369 288.828 414.16 296.335C414.369 306.134 411.446 315.934 406.019 324.066C400.174 332.406 392.033 338.869 382.639 342.623C372.41 347.001 359.885 349.295 344.855 349.295C335.252 349.295 325.859 348.461 316.465 346.584C309.159 345.333 301.852 343.04 295.172 339.912C293.711 339.078 292.668 337.618 292.876 335.95V299.671C292.876 299.045 293.085 298.211 293.711 297.794C294.337 297.377 294.964 297.586 295.59 298.003C303.731 302.798 312.29 306.134 321.475 308.219C329.408 310.304 337.758 311.347 346.108 311.347C354.04 311.347 359.676 310.304 363.434 308.428C366.774 306.968 369.07 303.424 369.07 299.671C369.07 296.752 367.4 294.041 364.06 291.33C360.72 288.62 353.831 285.492 343.603 281.531C332.956 277.778 323.145 272.774 313.96 266.518C307.489 261.931 302.061 255.885 298.095 248.796C294.755 242.123 293.085 234.826 293.294 227.528C293.294 218.562 295.799 210.014 300.391 202.299C305.61 193.959 313.334 187.287 322.31 183.117C332.121 178.113 344.438 175.819 359.259 175.819C367.818 175.819 376.585 176.445 385.144 177.696C391.406 178.53 397.46 180.198 403.096 182.491C403.931 182.7 404.766 183.534 405.184 184.368C405.393 185.202 405.601 186.036 405.601 186.87V220.856C405.601 221.69 405.184 222.524 404.558 222.941C402.679 223.358 401.635 223.358 400.8 222.941Z" fill="#31A8FF"/>
</g>
</g>
<defs>
<filter id="filter0_b_3_68" x="-241" y="-241" width="983" height="970" filterUnits="userSpaceOnUse" color-interpolation-filters="sRGB">
<feFlood flood-opacity="0" result="BackgroundImageFix"/>
<feGaussianBlur in="BackgroundImageFix" stdDeviation="120.5"/>
<feComposite in2="SourceAlpha" operator="in" result="effect1_backgroundBlur_3_68"/>
<feBlend mode="normal" in="SourceGraphic" in2="effect1_backgroundBlur_3_68" result="shape"/>
</filter>
<clipPath id="clip0_3_68">
<rect width="501" height="488" rx="244" fill="white"/>
</clipPath>
</defs>
</svg>
